<?xml version="1.0" encoding="utf-8"?>
<!-- Generator: Adobe Illustrator 19.0.1, SVG Export Plug-In . SVG Version: 6.00 Build 0)  -->
<svg version="1.1" id="Layer_1" xmlns="http://www.w3.org/2000/svg" xmlns:xlink="http://www.w3.org/1999/xlink" x="0px" y="0px"
	 viewBox="-485 2454.9 218.1 92.1" style="enable-background:new -485 2454.9 218.1 92.1;" xml:space="preserve">
<style type="text/css">
	.st0{fill:#000000;}
</style>
<g>
	<g>
		<g>
			<path class="st0" d="M-376.9,2543.5l11.9-15.3c0.1-0.1,0.1-0.3,0.1-0.4l-10.5-72.4c0-0.3-0.3-0.5-0.6-0.5h-13.7
				c-0.2,0-0.4,0.1-0.5,0.3l-32.7,66.6c-0.2,0.4-0.8,0.4-1,0l-33-66.6c-0.1-0.2-0.3-0.3-0.5-0.3h-13.8c-0.3,0-0.5,0.2-0.6,0.5
				l-13.2,90.9c-0.1,0.3,0.2,0.6,0.6,0.6h16c0.3,0,0.5-0.2,0.6-0.5l8-58.3c0.1-0.6,0.8-0.7,1.1-0.2l29.1,58.7
				c0.1,0.2,0.3,0.3,0.5,0.3h11.3c0.2,0,0.4-0.1,0.5-0.3l28.7-57.9c0.3-0.5,1-0.4,1.1,0.2l7.8,56.5c0.1,0.5,0.7,0.7,1,0.3
				L-376.9,2543.5z"/>
			<path class="st0" d="M-279.5,2454.9h-20.1c-0.2,0-0.3,0.1-0.5,0.2l-24.1,31.6c-0.2,0.3-0.7,0.3-0.9,0l-24.2-31.6
				c-0.1-0.1-0.3-0.2-0.5-0.2h-20.1c-0.5,0-0.7,0.6-0.5,0.9l34.6,44.8c0.2,0.2,0.2,0.5,0,0.7l-34.6,44.8c-0.3,0.4,0,0.9,0.5,0.9
				h20.1c0.2,0,0.3-0.1,0.5-0.2l24.2-31.6c0.2-0.3,0.7-0.3,0.9,0l24.2,31.6c0.1,0.1,0.3,0.2,0.5,0.2h20.1c0.5,0,0.7-0.6,0.5-0.9
				l-34.6-44.8c-0.2-0.2-0.2-0.5,0-0.7l34.6-44.8C-278.8,2455.4-279,2454.9-279.5,2454.9z"/>
		</g>
	</g>
	<g>
		<path class="st0" d="M-271.3,2546.9c-2.4,0-4.4-2-4.4-4.4c0-2.5,2-4.4,4.4-4.4c2.5,0,4.4,2,4.4,4.4
			C-266.9,2544.9-268.9,2546.9-271.3,2546.9z M-271.3,2538.8c-2,0-3.7,1.6-3.7,3.7c0,2,1.6,3.7,3.7,3.7s3.7-1.7,3.7-3.7
			C-267.6,2540.4-269.3,2538.8-271.3,2538.8z M-270.1,2545l-1.3-2h-0.8v2h-0.8v-5.1h2.1c0.9,0,1.7,0.6,1.7,1.5c0,1.1-1,1.5-1.3,1.5
			l1.4,2H-270.1z M-271,2540.6h-1.3v1.8h1.3c0.4,0,0.9-0.3,0.9-0.9C-270.1,2540.9-270.5,2540.6-271,2540.6z"/>
	</g>
</g>
</svg>
